<svg version="1.2" xmlns="http://www.w3.org/2000/svg" viewBox="0 0 1000 1000" width="1000" height="1000">
	<style>
		.s0 { fill: #000000 } 
		.s1 { fill: #ffffff } 
	</style>
	<g id="Layer 1">
		<g id="Folder 1">
			<path id="Shape 2" fill-rule="evenodd" class="s0" d="m1017.47-7v1007h-1034.94v-1007z"/>
			<g id="Letters">
				<path id="ح" fill-rule="evenodd" class="s1" d="m880.82 149.49l-0.46 379.17-240.28 1.85 181.99 181.22 0.25-131.5 57.5-0.5 0.88 272.65-352.35-353.32 28.2-28.69 264.95 0.65 0.33-180.34-133.79 134.93-81.48-1.48 273.96-276.42c0 0 0.77 1.11 0.3 1.78z"/>
				<path id="L" fill-rule="evenodd" class="s1" d="m116.07 85.53l79.76-0.64 301.53 302.82 302.18-302.18 79.76-0.64-379.3 385.82z"/>
				<path id="A" fill-rule="evenodd" class="s1" d="m495.8 529.78l-382.18 385.33 82.63 1.5 169.88-171.12 261.75-0.13 170.25 171.13 81.12-0.38z"/>
				<path id="Shape 5" fill-rule="evenodd" class="s0" d="m496.38 612.61l-73.5 75.5h147.87z"/>
				<path id="Shape 6" fill-rule="evenodd" class="s0" d=""/>
				<path id="S" fill-rule="evenodd" class="s1" d="m112.5 149.49l0.46 379.17 240.28 1.85-181.99 181.22-0.25-131.5-57.5-0.5-0.87 272.65 352.34-353.32-28.2-28.69-264.95 0.65-0.32-180.34 133.78 134.93 81.49-1.48-273.97-276.42c0 0-0.76 1.11-0.3 1.78z"/>
			</g>
		</g>
		<g id="Letters copy">
			<path id="ح" fill-rule="evenodd" class="s1" d="m880.82 149.49l-0.46 379.17-240.28 1.85 181.99 181.22 0.25-131.5 57.5-0.5 0.88 272.65-352.35-353.32 28.2-28.69 264.95 0.65 0.33-180.34-133.79 134.93-81.48-1.48 273.96-276.42c0 0 0.77 1.11 0.3 1.78z"/>
			<path id="L" fill-rule="evenodd" class="s1" d="m116.07 85.53l79.76-0.64 301.53 302.82 302.18-302.18 79.76-0.64-379.3 385.82z"/>
			<path id="A" fill-rule="evenodd" class="s1" d="m495.8 529.78l-382.18 385.33 82.63 1.5 169.88-171.12 261.75-0.13 170.25 171.13 81.12-0.38z"/>
			<path id="Shape 5" fill-rule="evenodd" class="s0" d="m496.38 612.61l-73.5 75.5h147.87z"/>
			<path id="Shape 6" fill-rule="evenodd" class="s0" d=""/>
			<path id="S" fill-rule="evenodd" class="s1" d="m112.5 149.49l0.46 379.17 240.28 1.85-181.99 181.22-0.25-131.5-57.5-0.5-0.87 272.65 352.34-353.32-28.2-28.69-264.95 0.65-0.32-180.34 133.78 134.93 81.49-1.48-273.97-276.42c0 0-0.76 1.11-0.3 1.78z"/>
		</g>
	</g>
</svg>