<svg version="1.2" xmlns="http://www.w3.org/2000/svg" viewBox="0 0 1000 1000" width="1000" height="1000">
	<style>
		.s0 { fill: #ffffff } 
		.s1 { fill: #000000 } 
	</style>
	<g id="Layer 1">
		<g id="Letters copy">
			<path id="ح" fill-rule="evenodd" class="s0" d="m880.82 149.49l-0.46 379.17-240.28 1.85 181.99 181.22 0.25-131.5 57.5-0.5 0.88 272.65-352.35-353.32 28.2-28.69 264.95 0.65 0.33-180.34-133.79 134.93-81.48-1.48 273.96-276.42c0 0 0.77 1.11 0.3 1.78z"/>
			<path id="L" fill-rule="evenodd" class="s0" d="m116.07 85.53l79.76-0.64 301.53 302.82 302.18-302.18 79.76-0.64-379.3 385.82z"/>
			<path id="A" fill-rule="evenodd" class="s0" d="m879.25 916.11l-81.13 0.38-170.25-171.13-261.75 0.13-169.87 171.12-82.63-1.5 382.18-385.33zm-382.87-303.5l-73.5 75.5h147.87z"/>
			<path id="Shape 6" fill-rule="evenodd" class="s1" d=""/>
			<path id="S" fill-rule="evenodd" class="s0" d="m112.5 149.49l0.46 379.17 240.28 1.85-181.99 181.22-0.25-131.5-57.5-0.5-0.87 272.65 352.34-353.32-28.2-28.69-264.95 0.65-0.32-180.34 133.78 134.93 81.49-1.48-273.97-276.42c0 0-0.76 1.11-0.3 1.78z"/>
		</g>
	</g>
</svg>